<svg width="97" height="23" viewBox="0 0 97 23" fill="none" xmlns="http://www.w3.org/2000/svg">
<g clip-path="url(#clip0_3321_62355)">
<path d="M53.9136 22.8555H60.3187C65.3403 22.8555 66.9413 20.1385 66.9413 16.2999V6.48344C66.9413 2.75255 65.5591 0.181222 60.2825 0.181222H53.9136V22.8555ZM58.2078 19.2691V3.83988H60.2786C62.3494 3.83988 62.6432 4.99818 62.6432 6.55568V16.4076C62.6432 18.3275 62.2432 19.2691 60.3135 19.2691H58.2078ZM69.4159 22.8555H75.2024C79.5329 22.8555 81.9699 22.0952 81.9699 16.7725V15.3215C81.9699 12.569 81.2063 11.2662 79.6778 10.6845C81.0186 10.0331 81.7952 8.87101 81.7952 6.44669V5.86754C81.7952 1.01383 79.3569 0.181222 75.0652 0.181222H69.4159V22.8555ZM73.7101 19.4871V12.5322H75.3111C77.422 12.5322 77.6769 13.1114 77.6769 15.177V16.8068C77.6769 18.69 77.4181 19.4871 75.2748 19.4871H73.7101ZM73.7101 9.16376V3.5484H75.1338C77.2809 3.5484 77.4996 4.27329 77.4996 6.15648V6.48218C77.4996 8.50984 77.2809 9.16249 75.17 9.16249L73.7101 9.16376ZM90.1947 23C95.7988 23 96.6724 20.3197 96.9998 15.7917L92.7055 15.3937C92.5606 18.7622 92.4467 19.3413 90.4859 19.3413C88.63 19.3413 88.2663 18.472 88.2663 16.4076V6.58989C88.2663 4.52548 88.9212 3.76384 90.3759 3.76384C92.4868 3.76384 92.5231 4.70671 92.5968 7.49474L96.9636 7.13229C96.6788 2.13665 95.4351 0 90.4497 0C86.0092 0 83.9358 2.06441 83.9358 6.62791V16.2213C83.9358 21.075 86.1554 22.9949 90.1947 22.9949V23Z" fill="#121840"/>
<path d="M27.3613 0.786956C27.1082 0.535035 26.8058 0.335542 26.4723 0.200345C26.1388 0.0651466 25.7809 -0.00299566 25.42 -2.92202e-05C24.1426 -2.92202e-05 23.2522 0.860459 23.2522 0.860459L0 22.9759H12.9087L25.31 11.1584L25.3177 11.166L29.6884 6.91429C29.6884 6.91429 30.4908 6.17166 31.6194 6.17166C32.3786 6.15905 33.1187 6.40597 33.7121 6.86993L27.3613 0.786956V0.786956Z" fill="#D9D8D6"/>
<path d="M33.7121 6.87L50.6044 22.981L37.732 23L25.3203 11.1661L29.6883 6.91436C29.6883 6.91436 30.4908 6.17172 31.6193 6.17172C32.3786 6.15912 33.1187 6.40604 33.7121 6.87" fill="#121840"/>
</g>
<defs>
<clipPath id="clip0_3321_62355">
<rect width="97" height="23" fill="white"/>
</clipPath>
</defs>
</svg>
