<svg width="50" height="52" viewBox="0 0 50 52" fill="none" xmlns="http://www.w3.org/2000/svg">
<g clip-path="url(#clip0_3321_62091)">
<path d="M36.02 11.56H28.98V4.52002" stroke="#B3B2B1" stroke-width="2" stroke-linecap="round" stroke-linejoin="round"/>
<path d="M39.54 45.95V47.92C39.54 49.22 38.49 50.27 37.19 50.27H3.35C2.05 50.27 1 49.22 1 47.92V3.35C1 2.05 2.05 1 3.35 1H30.15L39.53 10.38V23.24" stroke="#B3B2B1" stroke-width="2" stroke-linecap="round" stroke-linejoin="round"/>
<path d="M9.6001 20.94H22.5001" stroke="white" stroke-width="2" stroke-linecap="round" stroke-linejoin="round"/>
<path d="M9.6001 29.74H22.5001" stroke="white" stroke-width="2" stroke-linecap="round" stroke-linejoin="round"/>
<path d="M9.6001 38.54H22.5001" stroke="white" stroke-width="2" stroke-linecap="round" stroke-linejoin="round"/>
<path d="M43.0801 40.8L48.5401 46" stroke="#E3AB63" stroke-width="2" stroke-linecap="round" stroke-linejoin="round"/>
<path d="M36.7202 42.44C41.1385 42.44 44.7202 38.8583 44.7202 34.44C44.7202 30.0217 41.1385 26.44 36.7202 26.44C32.3019 26.44 28.7202 30.0217 28.7202 34.44C28.7202 38.8583 32.3019 42.44 36.7202 42.44Z" stroke="#E3AB63" stroke-width="2" stroke-linecap="round" stroke-linejoin="round"/>
</g>
<defs>
<clipPath id="clip0_3321_62091">
<rect width="49.54" height="51.27" fill="white"/>
</clipPath>
</defs>
</svg>
