<svg width="54" height="55" viewBox="0 0 54 55" fill="none" xmlns="http://www.w3.org/2000/svg">
<g clip-path="url(#clip0_3321_62167)">
<path d="M18.66 2.44002C24.34 0.48002 30.69 0.52002 36.33 2.59002C39.46 3.74002 42.33 5.56002 44.77 7.82002C43.95 8.71002 43.06 9.54002 42.22 10.4C40.61 12.01 39.01 13.62 37.39 15.22C35.79 13.7 33.85 12.54 31.73 11.9C29.24 11.15 26.57 11.04 24.03 11.59C21.06 12.23 18.31 13.77 16.2 15.94C14.48 17.68 13.18 19.81 12.39 22.12C9.52004 19.9 6.66004 17.67 3.79004 15.45C6.82004 9.41002 12.26 4.63002 18.66 2.44002Z" stroke="#B3B2B1" stroke-width="2" stroke-linecap="round" stroke-linejoin="round"/>
<path d="M1.52008 22.05C1.98008 19.76 2.75008 17.54 3.80008 15.46C6.67008 17.68 9.53008 19.91 12.4001 22.13C11.2701 25.41 11.2801 29.06 12.4001 32.35C9.54008 34.57 6.67008 36.8 3.80008 39.02C1.17008 33.82 0.360084 27.75 1.52008 22.05Z" stroke="#B3B2B1" stroke-width="2" stroke-linecap="round" stroke-linejoin="round"/>
<path d="M27.2302 22.32C35.4602 22.32 43.6902 22.32 51.9202 22.32C52.7402 26.93 52.5602 31.74 51.2502 36.25C50.0502 40.38 47.7902 44.22 44.6102 47.14C41.8402 44.98 39.0502 42.83 36.2702 40.66C39.0302 38.82 40.9702 35.83 41.5202 32.56C36.7602 32.56 31.9902 32.56 27.2202 32.56C27.2202 29.15 27.2202 25.73 27.2202 22.32H27.2302Z" stroke="white" stroke-width="2" stroke-linecap="round" stroke-linejoin="round"/>
<path d="M3.79004 39.01C6.66004 36.79 9.52004 34.56 12.39 32.34C13.48 35.57 15.61 38.44 18.4 40.4C20.14 41.63 22.15 42.5 24.24 42.92C26.3 43.34 28.43 43.29 30.5 42.94C32.55 42.58 34.54 41.82 36.28 40.66C39.05 42.82 41.84 44.97 44.62 47.14C41.62 49.91 37.86 51.81 33.88 52.73C29.48 53.73 24.83 53.76 20.46 52.59C17 51.67 13.73 50.02 10.93 47.78C7.96004 45.42 5.51004 42.41 3.80004 39.02L3.79004 39.01Z" stroke="#E3AB63" stroke-width="2" stroke-linecap="round" stroke-linejoin="round"/>
</g>
<defs>
<clipPath id="clip0_3321_62167">
<rect width="53.42" height="54.47" fill="white"/>
</clipPath>
</defs>
</svg>
