<svg width="297" height="78" viewBox="0 0 297 78" fill="none" xmlns="http://www.w3.org/2000/svg">
<g clip-path="url(#clip0_3093_20488)">
<path d="M28.4036 21.2395H10.9373C9.88602 21.2395 9.09294 21.4958 8.55807 22.0268C8.0232 22.5578 7.74655 23.3085 7.74655 24.3155V45.555H0.000164445V24.3155C-0.0204079 23.1117 0.153955 21.9123 0.51659 20.7634C0.820839 19.7757 1.28155 18.8425 1.88143 17.9986C2.42576 17.2215 3.08483 16.5302 3.83647 15.9479C4.54594 15.3989 5.32013 14.9378 6.14194 14.5747C7.64122 13.9125 9.25969 13.5575 10.9004 13.531H28.422V21.2395H28.4036Z" fill="#FF0000"/>
<path d="M66.8035 34.9535C66.7896 36.1231 66.5968 37.2838 66.2317 38.3958C65.8431 39.6456 65.2239 40.8128 64.4058 41.8381C63.4988 42.9442 62.3677 43.8487 61.0859 44.493C59.7211 45.2071 58.0611 45.555 56.1245 45.555H42.1257C40.9476 45.5412 39.7785 45.3498 38.6583 44.9873C37.3994 44.6015 36.2236 43.9869 35.1909 43.1747C34.0766 42.2743 33.1655 41.1514 32.5165 39.8789C31.7972 38.524 31.4468 36.8761 31.4468 34.9535C31.462 33.7781 31.6547 32.6116 32.0185 31.493C32.4118 30.1819 33.0712 28.9646 33.9562 27.916C34.8412 26.8674 35.933 26.0098 37.1643 25.3958C38.5292 24.6817 40.1891 24.3338 42.1257 24.3338H56.1245V31.6761H42.1257C41.0744 31.6761 40.2629 32.0057 39.6727 32.6465C39.0909 33.3025 38.7811 34.1531 38.8058 35.0268C38.8058 36.0338 39.1378 36.8211 39.8018 37.3888C40.4625 37.9523 41.3103 38.2524 42.181 38.231H56.1245C57.1758 38.231 57.9874 37.9197 58.5776 37.2789C59.1561 36.6282 59.4657 35.7846 59.4444 34.9169V24.169C59.4444 23.162 59.1309 22.3564 58.5038 21.7704C57.8606 21.1721 57.0057 20.8497 56.1245 20.8733H39.0825V13.5493H56.1245C57.3026 13.5631 58.4718 13.7545 59.592 14.1169C60.8509 14.5027 62.0266 15.1174 63.0594 15.9296C64.1736 16.83 65.0848 17.9529 65.7337 19.2254C66.453 20.5803 66.8035 22.2282 66.8035 24.1507V34.9535Z" fill="black"/>
<path d="M109.003 34.7522C109.022 35.9619 108.848 37.167 108.486 38.3226C108.181 39.312 107.727 40.2502 107.14 41.1057C106.607 41.8864 105.954 42.5785 105.203 43.1564C104.494 43.7054 103.72 44.1665 102.898 44.5296C102.117 44.8768 101.301 45.1407 100.463 45.317C99.6994 45.4796 98.9208 45.5655 98.1395 45.5733H84.1407V37.8648H98.1395C99.1723 37.8648 99.947 37.5902 100.463 37.0592C100.98 36.5282 101.238 35.7592 101.238 34.7522V24.3888C101.238 23.3268 100.98 22.5395 100.445 22.0268C99.9101 21.5141 99.1539 21.2578 98.1395 21.2578H84.196C83.1447 21.2578 82.3516 21.5141 81.8167 22.0451C81.2819 22.5761 81.0052 23.3268 81.0052 24.3339V55.5888H73.2404V24.3339C73.2198 23.13 73.3942 21.9307 73.7568 20.7817C74.0611 19.7941 74.5218 18.8608 75.1217 18.017C75.666 17.2399 76.3251 16.5486 77.0767 15.9662C77.7862 15.4173 78.5604 14.9561 79.3822 14.593C80.8814 13.9308 82.4999 13.5759 84.1407 13.5493H98.1395C99.3521 13.5289 100.56 13.702 101.718 14.062C102.708 14.3656 103.647 14.8162 104.503 15.3986C105.289 15.9273 105.986 16.5762 106.568 17.3212C107.121 18.0255 107.586 18.7941 107.952 19.6099C108.299 20.3865 108.564 21.1963 108.745 22.0268C108.908 22.7853 108.995 23.5582 109.003 24.3339V34.7522Z" fill="black"/>
<path d="M123.5 6.95775H115.735V0H123.5V6.95775ZM123.5 45.5549H115.735V13.5493H123.5V45.5549Z" fill="black"/>
<path d="M166.307 34.7521C166.327 35.9619 166.152 37.167 165.791 38.3225C165.485 39.312 165.031 40.2501 164.445 41.1056C163.912 41.8863 163.258 42.5784 162.508 43.1563C161.798 43.7053 161.024 44.1665 160.202 44.5296C158.692 45.1972 157.06 45.5523 155.407 45.5732H141.408C140.196 45.5937 138.988 45.4206 137.83 45.0606C136.835 44.7585 135.895 44.3012 135.045 43.7056C134.266 43.1604 133.571 42.5067 132.98 41.7648C132.427 41.0605 131.962 40.2919 131.596 39.4761C130.929 37.9877 130.572 36.3809 130.545 34.7521V24.3338C130.545 22.3563 130.914 20.6901 131.633 19.3169C132.261 18.071 133.139 16.9665 134.215 16.072C135.291 15.1774 136.54 14.512 137.886 14.1169C139.027 13.7657 140.213 13.5746 141.408 13.5493H155.407V21.2577H141.464C140.431 21.2577 139.638 21.5141 139.103 22.0451C138.568 22.5761 138.291 23.3268 138.291 24.3338V34.6972C138.291 35.7408 138.55 36.5282 139.084 37.0592C139.619 37.5901 140.375 37.8648 141.39 37.8648H155.389C156.44 37.8648 157.233 37.5901 157.749 37.0592C158.266 36.5282 158.524 35.7592 158.524 34.7521V0H166.289V34.7521H166.307Z" fill="black"/>
<path d="M95.2252 74.2648C94.5929 74.2807 93.961 74.2192 93.3439 74.0817C92.93 73.9804 92.5233 73.852 92.1266 73.6972C91.8223 73.5591 91.5703 73.3282 91.4073 73.0381C91.2413 72.7451 91.1122 72.4888 91.0384 72.324V74.0634H89.4707V59.7085H91.0384V64.3043C91.1313 64.1459 91.2497 64.0036 91.3889 63.8831C91.6079 63.7008 91.8576 63.5582 92.1266 63.462C92.5273 63.3144 92.941 63.204 93.3623 63.1324C93.9844 63.0349 94.6139 62.992 95.2436 63.0043C96.143 62.9883 97.0409 63.0805 97.9179 63.2789C98.5855 63.4212 99.203 63.7371 99.707 64.1944C100.194 64.6721 100.539 65.2741 100.703 65.9338C101.121 67.7289 101.121 69.5951 100.703 71.3902C100.543 72.0464 100.197 72.6436 99.707 73.1113C99.2015 73.5628 98.584 73.8725 97.9179 74.0085C97.0324 74.1908 96.1295 74.2767 95.2252 74.2648ZM95.2252 72.7634C95.7549 72.7704 96.2845 72.746 96.8113 72.6902C97.1998 72.6504 97.583 72.5707 97.9548 72.4522C98.2398 72.3649 98.4985 72.2089 98.7077 71.9979C98.9169 71.787 99.0702 71.5279 99.1537 71.2437C99.2734 70.8881 99.3478 70.5191 99.375 70.1451C99.4119 69.724 99.4303 69.2113 99.4303 68.6254C99.4303 68.0395 99.4119 67.5451 99.375 67.1057C99.3516 66.7312 99.2771 66.3617 99.1537 66.0071C99.0594 65.7294 98.9087 65.4739 98.711 65.2564C98.4991 65.0422 98.2403 64.8793 97.9548 64.7803C97.5859 64.6512 97.2014 64.5711 96.8113 64.5423C96.3687 64.5057 95.8338 64.4691 95.2252 64.4691C94.7087 64.4691 94.2292 64.4874 93.8234 64.5057C93.4546 64.5232 93.0893 64.5847 92.7352 64.6888C92.4443 64.7729 92.1742 64.9164 91.9422 65.1099C91.7152 65.3151 91.5332 65.5644 91.4073 65.8423C91.2568 66.2118 91.1575 66.5998 91.1122 66.9958C91.0491 67.5367 91.0183 68.0809 91.02 68.6254C91.0177 69.1638 91.0485 69.7019 91.1122 70.2367C91.1571 70.6209 91.2565 70.9969 91.4073 71.3536C91.5218 71.6378 91.7056 71.8895 91.9422 72.086C92.1753 72.2737 92.4455 72.4109 92.7352 72.4888C93.0909 72.5856 93.4555 72.6469 93.8234 72.6719C94.2476 72.7085 94.6903 72.7634 95.2252 72.7634Z" fill="black"/>
<path d="M104.392 63.2972V69.2296C104.381 69.7879 104.424 70.3458 104.521 70.8958C104.586 71.3029 104.765 71.6836 105.037 71.9944C105.346 72.2988 105.737 72.5085 106.162 72.5986C106.785 72.738 107.423 72.7995 108.062 72.7817C108.769 72.7973 109.476 72.7235 110.164 72.562C110.633 72.4545 111.074 72.2485 111.456 71.9578C111.761 71.7183 111.986 71.3928 112.101 71.024C112.222 70.6323 112.284 70.2252 112.285 69.8155V63.2972H113.853V74.0634H112.285V72.1775C112.187 72.4194 112.057 72.6472 111.898 72.855C111.678 73.1346 111.402 73.3653 111.087 73.5324C110.644 73.7667 110.173 73.9451 109.685 74.0634C108.99 74.2237 108.277 74.2976 107.564 74.2832C106.958 74.2884 106.353 74.2394 105.756 74.1367C105.307 74.0604 104.872 73.9185 104.465 73.7155C104.132 73.5442 103.842 73.3 103.617 73.0015C103.4 72.7061 103.232 72.3786 103.119 72.031C103.002 71.6248 102.927 71.2075 102.898 70.786C102.861 70.3282 102.842 69.8339 102.842 69.2846V63.2972H104.392Z" fill="black"/>
<path d="M118.058 61.5029H116.491V59.7085H118.058V61.5029ZM116.472 63.2972H118.04V74.0634H116.472V63.2972Z" fill="black"/>
<path d="M121.194 59.7085H122.762V74.0634H121.194V59.7085Z" fill="black"/>
<path d="M130.914 74.2648C130.016 74.2768 129.119 74.1909 128.239 74.0085C127.576 73.8648 126.961 73.556 126.45 73.1113C125.964 72.6407 125.619 72.0447 125.454 71.3902C125.227 70.4989 125.122 69.5812 125.141 68.662C125.122 67.7307 125.228 66.8011 125.454 65.8972C125.619 65.2374 125.963 64.6355 126.45 64.1578C126.956 63.7063 127.573 63.3966 128.239 63.2606C129.119 63.0782 130.016 62.9923 130.914 63.0043C131.537 62.9927 132.161 63.0356 132.777 63.1324C133.198 63.2016 133.612 63.312 134.012 63.462C134.279 63.5625 134.528 63.7047 134.75 63.8831C134.894 64.0038 135.019 64.1458 135.119 64.3043V59.7085H136.687V74.0634H135.119V72.3789L134.732 72.9465C134.521 73.2037 134.264 73.4208 133.975 73.5874C133.603 73.7884 133.206 73.9422 132.795 74.0451C132.181 74.2035 131.548 74.2775 130.914 74.2648ZM130.914 72.7634C131.43 72.7634 131.91 72.7451 132.316 72.7268C132.684 72.7092 133.05 72.6478 133.404 72.5437C133.69 72.4582 133.959 72.3217 134.197 72.1409C134.428 71.9394 134.611 71.6892 134.732 71.4085C134.882 71.0518 134.982 70.6758 135.027 70.2916C135.09 69.7569 135.121 69.2188 135.119 68.6803C135.122 68.1236 135.091 67.5672 135.027 67.0141C134.981 66.6181 134.882 66.2301 134.732 65.8606C134.617 65.5763 134.433 65.3247 134.197 65.1282C133.964 64.9405 133.693 64.8033 133.404 64.7254C133.048 64.6286 132.683 64.5673 132.316 64.5423C131.91 64.524 131.43 64.5057 130.914 64.5057C130.384 64.4987 129.854 64.5231 129.328 64.5789C128.938 64.6098 128.554 64.6898 128.184 64.8169C127.899 64.9042 127.64 65.0602 127.431 65.2712C127.222 65.4821 127.069 65.7412 126.985 66.0254C126.864 66.3868 126.789 66.7621 126.764 67.1423C126.727 67.5817 126.709 68.0944 126.709 68.6803C126.709 69.2662 126.727 69.7606 126.764 70.2C126.791 70.574 126.865 70.9431 126.985 71.2986C127.08 71.5763 127.23 71.8318 127.428 72.0493C127.641 72.2578 127.9 72.4144 128.184 72.5071C128.555 72.6275 128.939 72.7073 129.328 72.7451C129.77 72.7451 130.287 72.7634 130.914 72.7634Z" fill="black"/>
<path d="M140.873 61.5029H139.306V59.7085H140.873V61.5029ZM139.306 63.2972H140.873V74.0634H139.306V63.2972Z" fill="black"/>
<path d="M152.936 74.0634V68.0761C152.947 67.5118 152.904 66.9478 152.807 66.3916C152.742 65.9846 152.563 65.6039 152.29 65.293C151.986 64.9925 151.602 64.7831 151.184 64.6888C150.561 64.5484 149.923 64.4869 149.284 64.5057C148.577 64.4901 147.87 64.5639 147.181 64.7254C146.714 64.8368 146.274 65.0424 145.89 65.3296C145.581 65.5726 145.355 65.9055 145.245 66.2817C145.123 66.6794 145.061 67.0928 145.06 67.5085V74.0817H143.493V63.2972H145.06V65.0916C145.164 64.7949 145.334 64.5256 145.558 64.3043C145.777 64.0899 146.018 63.8996 146.278 63.7367C146.552 63.5791 146.843 63.4503 147.145 63.3522C147.454 63.2616 147.768 63.1883 148.085 63.1325C148.384 63.0789 148.686 63.0422 148.989 63.0226C149.284 63.0043 149.542 62.986 149.782 62.986C150.388 62.9807 150.993 63.0297 151.59 63.1325C152.042 63.2061 152.478 63.3546 152.881 63.5719C153.206 63.7548 153.494 63.9971 153.729 64.286C153.953 64.5836 154.121 64.9184 154.227 65.2747C154.349 65.6869 154.429 66.1101 154.467 66.5381C154.504 66.9958 154.522 67.5085 154.522 68.0578V74.0451H152.936V74.0634Z" fill="black"/>
<path d="M167.912 72.562C167.931 73.439 167.826 74.3143 167.599 75.162C167.425 75.8022 167.081 76.3841 166.603 76.8465C166.097 77.298 165.48 77.6077 164.814 77.7437C163.934 77.9261 163.037 78.012 162.139 78C161.313 78.0066 160.487 77.9577 159.668 77.8536C159.103 77.7907 158.553 77.6296 158.045 77.3775C157.676 77.1928 157.369 76.9068 157.159 76.5536C156.971 76.166 156.883 75.7383 156.901 75.3085H158.469C158.462 75.5218 158.52 75.7323 158.635 75.9127C158.791 76.0897 158.996 76.2171 159.225 76.2789C159.592 76.3832 159.969 76.4447 160.35 76.462C160.83 76.4986 161.42 76.5169 162.139 76.5169C162.804 76.5201 163.469 76.4895 164.131 76.4254C164.595 76.3891 165.04 76.2312 165.422 75.9676C165.78 75.6955 166.028 75.3061 166.123 74.869C166.289 74.2233 166.363 73.5577 166.344 72.8916C166.1 73.337 165.71 73.6859 165.238 73.8803C164.843 74.0526 164.428 74.1757 164.002 74.2465C163.387 74.3506 162.763 74.3996 162.139 74.393C161.24 74.409 160.342 74.3168 159.465 74.1183C158.797 73.9761 158.18 73.6601 157.676 73.2028C157.189 72.7251 156.844 72.1232 156.68 71.4634C156.454 70.5656 156.349 69.6421 156.366 68.7169C156.348 67.7796 156.453 66.8439 156.68 65.9338C156.84 65.2723 157.185 64.6692 157.676 64.1944C158.185 63.7438 158.8 63.4288 159.465 63.2789C160.343 63.0874 161.241 63.0014 162.139 63.0225C162.763 63.0109 163.386 63.0538 164.002 63.1507C164.424 63.2199 164.838 63.3303 165.238 63.4803C165.505 63.5808 165.754 63.723 165.976 63.9014C166.12 64.0221 166.244 64.1641 166.344 64.3225V63.2972H167.912V72.562ZM162.139 64.4873C161.61 64.4803 161.08 64.5048 160.553 64.5606C160.163 64.5915 159.779 64.6714 159.41 64.7986C159.122 64.8932 158.862 65.0567 158.653 65.2747C158.443 65.4896 158.29 65.7543 158.211 66.0437C158.089 66.4114 158.015 66.7928 157.989 67.1789C157.953 67.6183 157.934 68.131 157.934 68.7169C157.934 69.3028 157.953 69.8155 157.989 70.2366C158.015 70.6168 158.089 70.9921 158.211 71.3535C158.305 71.6367 158.456 71.8982 158.653 72.1226C158.87 72.3307 159.127 72.4927 159.41 72.5986C159.781 72.719 160.164 72.7989 160.553 72.8366C161.08 72.892 161.61 72.9164 162.139 72.9099C162.656 72.9099 163.135 72.8916 163.541 72.8733C163.91 72.8557 164.275 72.7942 164.629 72.6902C164.92 72.606 165.19 72.4626 165.422 72.269C165.653 72.0676 165.836 71.8173 165.957 71.5366C166.108 71.1672 166.207 70.7791 166.252 70.3831C166.316 69.83 166.347 69.2736 166.344 68.7169C166.347 68.1602 166.316 67.6039 166.252 67.0507C166.207 66.6547 166.108 66.2667 165.957 65.8972C165.843 65.6129 165.659 65.3613 165.422 65.1648C165.189 64.9771 164.919 64.8399 164.629 64.762C164.273 64.6652 163.909 64.6039 163.541 64.5789C163.077 64.5082 162.608 64.4776 162.139 64.4873Z" fill="black"/>
<path d="M175.769 61.5029H174.201V59.7085H175.769V61.5029ZM174.201 63.2972H175.769V74.0634H174.201V63.2972Z" fill="black"/>
<path d="M187.85 74.0634V68.0761C187.861 67.5118 187.818 66.9478 187.721 66.3916C187.656 65.9846 187.477 65.6039 187.204 65.293C186.9 64.9925 186.516 64.7831 186.098 64.6888C185.475 64.5484 184.837 64.4869 184.198 64.5057C183.491 64.4901 182.784 64.5639 182.095 64.7254C181.628 64.8368 181.188 65.0424 180.804 65.3296C180.495 65.5726 180.269 65.9055 180.159 66.2817C180.037 66.6794 179.975 67.0928 179.974 67.5085V74.0817H178.407V63.2972H179.974V65.0916C180.078 64.7949 180.248 64.5256 180.472 64.3043C180.691 64.0899 180.932 63.8996 181.192 63.7367C181.467 63.5791 181.757 63.4503 182.059 63.3522C182.368 63.2616 182.682 63.1883 182.999 63.1325C183.298 63.0789 183.6 63.0422 183.903 63.0226C184.198 63.0043 184.456 62.986 184.696 62.986C185.302 62.9807 185.907 63.0297 186.504 63.1325C186.956 63.2061 187.392 63.3546 187.795 63.5719C188.12 63.7548 188.408 63.9971 188.643 64.286C188.867 64.5836 189.035 64.9184 189.141 65.2747C189.263 65.6869 189.343 66.1101 189.381 66.5381C189.418 66.9958 189.436 67.5085 189.436 68.0578V74.0451H187.85V74.0634Z" fill="black"/>
<path d="M195.08 69.1198C194.591 69.1067 194.104 69.0578 193.623 68.9733C193.269 68.9164 192.927 68.8052 192.608 68.6437C192.349 68.5104 192.128 68.3153 191.963 68.0761C191.787 67.8118 191.673 67.5113 191.631 67.1973C191.561 66.8169 191.53 66.4304 191.539 66.0437C191.525 65.5553 191.633 65.0711 191.852 64.6339C192.078 64.2273 192.426 63.9008 192.848 63.7001C193.409 63.4255 194.015 63.2519 194.637 63.1874C195.523 63.0677 196.417 63.0126 197.312 63.0226C198.17 63.0058 199.028 63.0671 199.875 63.2057C200.442 63.2888 200.988 63.4816 201.48 63.7733C201.851 64.0033 202.142 64.3425 202.31 64.7437C202.484 65.1931 202.565 65.6725 202.55 66.1536H200.982C200.992 65.8699 200.935 65.5878 200.816 65.3296C200.688 65.0977 200.478 64.9214 200.226 64.8353C199.864 64.7015 199.485 64.6153 199.101 64.5789C198.506 64.5219 197.909 64.4975 197.312 64.5057C196.518 64.5057 195.854 64.524 195.32 64.5423C194.884 64.5526 194.45 64.6141 194.029 64.7254C193.746 64.7875 193.497 64.9504 193.328 65.1832C193.176 65.4379 193.1 65.7297 193.106 66.0254C193.106 66.2451 193.125 66.4465 193.143 66.648C193.153 66.8245 193.21 66.9952 193.309 67.1423C193.404 67.2783 193.539 67.3809 193.697 67.4353C193.92 67.5235 194.157 67.5731 194.397 67.5818C194.759 67.6222 195.122 67.6406 195.486 67.6367H197.053C197.791 67.6367 198.455 67.655 199.008 67.6916C199.499 67.7215 199.986 67.7889 200.465 67.893C200.828 67.9667 201.172 68.1098 201.48 68.3142C201.725 68.4882 201.943 68.6981 202.125 68.9367C202.298 69.1757 202.412 69.4516 202.457 69.7423C202.52 70.0929 202.55 70.4483 202.55 70.8043C202.55 71.1664 202.52 71.5278 202.457 71.8846C202.402 72.1869 202.283 72.474 202.107 72.7268C201.928 72.9802 201.703 73.1976 201.443 73.3677C201.117 73.575 200.754 73.7179 200.373 73.7888C199.868 73.8973 199.357 73.9767 198.842 74.0268C198.252 74.0818 197.551 74.1001 196.777 74.1001C195.95 74.1109 195.123 74.0558 194.305 73.9353C193.736 73.8564 193.187 73.6765 192.682 73.4043C192.297 73.1825 191.989 72.8507 191.797 72.4522C191.606 71.9944 191.518 71.5008 191.539 71.0057H193.106C193.096 71.3191 193.152 71.6311 193.272 71.9212C193.396 72.1688 193.606 72.3638 193.863 72.4705C194.221 72.6201 194.6 72.7128 194.988 72.7451C195.582 72.8022 196.179 72.8266 196.777 72.8184C197.441 72.8184 197.994 72.8001 198.455 72.7634C198.846 72.737 199.234 72.6819 199.617 72.5987C199.876 72.5451 200.124 72.4525 200.355 72.324C200.519 72.2302 200.659 72.0983 200.761 71.9395C200.852 71.7872 200.914 71.6197 200.945 71.4451C200.968 71.2445 200.98 71.0428 200.982 70.8409C200.98 70.6573 200.968 70.4739 200.945 70.2916C200.923 70.1233 200.867 69.9612 200.779 69.8156C200.689 69.6586 200.554 69.5313 200.392 69.4494C200.169 69.3481 199.933 69.2802 199.691 69.248C199.331 69.1856 198.968 69.1489 198.603 69.1381C198.16 69.1198 197.644 69.1015 197.035 69.1015C196.384 69.1435 195.731 69.1496 195.08 69.1198Z" fill="black"/>
<path d="M210.407 62.9859C211.306 62.9699 212.204 63.0621 213.081 63.2606C213.749 63.4028 214.366 63.7188 214.87 64.176C215.357 64.6538 215.702 65.2557 215.866 65.9155C216.284 67.7106 216.284 69.5767 215.866 71.3718C215.702 72.0263 215.357 72.6223 214.87 73.0929C214.365 73.5445 213.747 73.8542 213.081 73.9901C212.203 74.1816 211.305 74.2676 210.407 74.2465C209.776 74.2538 209.147 74.2048 208.525 74.1C208.1 74.0291 207.685 73.9061 207.29 73.7338C207.019 73.6165 206.77 73.4556 206.552 73.2577C206.405 73.116 206.286 72.9484 206.202 72.7634V77.6338H204.634V63.2972H206.202V64.3042C206.299 64.1492 206.417 64.0076 206.552 63.8831C206.771 63.7007 207.021 63.5581 207.29 63.462C207.69 63.3143 208.104 63.204 208.525 63.1324C209.147 63.0284 209.776 62.9794 210.407 62.9859ZM210.407 64.4873C209.89 64.4873 209.411 64.5056 209.005 64.5422C208.637 64.5688 208.273 64.6301 207.917 64.7253C207.626 64.8095 207.356 64.9529 207.124 65.1465C206.893 65.3479 206.71 65.5982 206.589 65.8789C206.438 66.2419 206.339 66.624 206.294 67.0141C206.171 68.0909 206.171 69.1781 206.294 70.2549C206.336 70.6455 206.436 71.0278 206.589 71.3901C206.703 71.6744 206.887 71.9261 207.124 72.1225C207.356 72.3161 207.626 72.4595 207.917 72.5437C208.27 72.6493 208.636 72.7108 209.005 72.7268C209.429 72.7451 209.89 72.7634 210.407 72.7634C210.936 72.7704 211.466 72.7459 211.993 72.6901C212.383 72.6592 212.767 72.5793 213.136 72.4521C213.423 72.3639 213.682 72.2066 213.893 71.9944C214.103 71.7863 214.256 71.5277 214.335 71.2437C214.455 70.8881 214.529 70.519 214.557 70.1451C214.593 69.7239 214.612 69.2113 214.612 68.6253C214.612 68.0394 214.593 67.5451 214.557 67.1056C214.531 66.7255 214.457 66.3501 214.335 65.9887C214.245 65.7091 214.094 65.4527 213.893 65.238C213.676 65.0298 213.418 64.8678 213.136 64.762C212.767 64.6328 212.383 64.5528 211.993 64.5239C211.55 64.5056 211.034 64.4873 210.407 64.4873Z" fill="black"/>
<path d="M223.539 74.2648C222.64 74.2768 221.744 74.1908 220.864 74.0084C220.204 73.877 219.588 73.5808 219.075 73.1479C218.594 72.7097 218.249 72.1444 218.079 71.5183C217.853 70.6828 217.748 69.8198 217.766 68.9549C217.747 67.9692 217.852 66.9851 218.079 66.0253C218.239 65.3372 218.583 64.7046 219.075 64.1944C219.572 63.719 220.191 63.3894 220.864 63.2422C221.741 63.0438 222.639 62.9516 223.539 62.9676C224.195 62.9551 224.851 63.0165 225.494 63.1507C225.988 63.2567 226.462 63.4422 226.895 63.7C227.265 63.9274 227.589 64.2189 227.855 64.5606C228.095 64.8859 228.287 65.2434 228.426 65.6225C228.582 66.041 228.681 66.4781 228.721 66.9225C228.775 67.4457 228.8 67.9714 228.795 68.4972L228.666 69.1014H219.334C219.317 69.7675 219.391 70.4327 219.555 71.0789C219.702 71.5915 219.924 71.976 220.256 72.1958C220.645 72.4438 221.087 72.6003 221.547 72.6535C222.209 72.7176 222.874 72.7482 223.539 72.7451C224.136 72.7533 224.733 72.7289 225.328 72.6718C225.715 72.6534 226.096 72.5666 226.453 72.4155C226.703 72.3166 226.911 72.1357 227.043 71.9028C227.163 71.6322 227.22 71.3379 227.209 71.0422H228.777C228.788 71.5485 228.7 72.0522 228.519 72.5253C228.328 72.9346 228.02 73.2787 227.633 73.5141C227.135 73.8038 226.583 73.9906 226.01 74.0634C225.196 74.2165 224.367 74.284 223.539 74.2648ZM223.539 64.4873C223.022 64.4873 222.543 64.5056 222.137 64.5239C221.769 64.5359 221.404 64.5912 221.049 64.6887C220.764 64.7621 220.496 64.8861 220.256 65.0549C220.045 65.2116 219.864 65.4037 219.721 65.6225C219.562 65.9053 219.462 66.2165 219.426 66.538C219.362 67.0053 219.331 67.4764 219.334 67.9479H227.209C227.225 67.3675 227.157 66.7878 227.006 66.2268C226.888 65.8236 226.657 65.4619 226.34 65.1833C226.024 64.9047 225.634 64.7205 225.217 64.6521C224.666 64.5337 224.103 64.4784 223.539 64.4873Z" fill="black"/>
<path d="M230.621 68.6437C230.621 67.893 230.658 67.2521 230.713 66.6845C230.76 66.1764 230.878 65.6773 231.064 65.2014C231.21 64.8115 231.436 64.4561 231.728 64.1578C232.031 63.858 232.396 63.6269 232.797 63.4803C233.291 63.2964 233.805 63.1734 234.328 63.1141C235.014 63.0354 235.704 62.9987 236.394 63.0042C237.266 62.9882 238.138 63.0618 238.995 63.224C239.575 63.3232 240.124 63.5552 240.599 63.9014C240.983 64.1939 241.266 64.5967 241.411 65.0549C241.569 65.596 241.644 66.1578 241.632 66.7211H240.064C240.064 66.4831 240.064 66.2817 240.046 66.0803C240.03 65.8936 239.993 65.7092 239.935 65.531C239.858 65.3621 239.745 65.2121 239.603 65.0916C239.418 64.9416 239.205 64.8295 238.976 64.762C238.638 64.665 238.293 64.5976 237.943 64.5606C237.519 64.524 237.003 64.4873 236.394 64.4873C235.802 64.4844 235.211 64.515 234.623 64.5789C234.219 64.6166 233.822 64.709 233.443 64.8535C233.161 64.9561 232.912 65.1334 232.724 65.3662C232.546 65.6 232.421 65.8683 232.355 66.1535C232.27 66.5075 232.227 66.87 232.226 67.2338C232.207 67.6549 232.207 68.131 232.207 68.662C232.207 69.193 232.207 69.669 232.226 70.0718C232.236 70.4351 232.279 70.7966 232.355 71.1521C232.417 71.4331 232.543 71.6962 232.724 71.9211C232.917 72.1485 233.164 72.3246 233.443 72.4338C233.822 72.5784 234.219 72.6708 234.623 72.7085C235.211 72.7723 235.802 72.8029 236.394 72.8C236.911 72.8076 237.429 72.7832 237.943 72.7268C238.293 72.6916 238.639 72.6241 238.976 72.5254C239.205 72.4578 239.418 72.3458 239.603 72.1958C239.75 72.0722 239.864 71.9151 239.935 71.738C240.011 71.5583 240.048 71.3652 240.046 71.1704C240.064 70.969 240.064 70.7493 240.064 70.493H241.632C241.643 71.0683 241.569 71.6421 241.411 72.1958C241.267 72.6646 240.984 73.0794 240.599 73.3859C240.122 73.731 239.574 73.9685 238.995 74.0817C238.138 74.2439 237.266 74.3175 236.394 74.3014C235.704 74.3069 235.014 74.2703 234.328 74.1916C233.805 74.1323 233.291 74.0093 232.797 73.8254C232.398 73.6743 232.034 73.4437 231.728 73.1479C231.436 72.8495 231.21 72.4941 231.064 72.1042C230.887 71.6321 230.769 71.1401 230.713 70.6394C230.643 69.9766 230.612 69.3101 230.621 68.6437Z" fill="black"/>
<path d="M252.92 69.2846C252.931 70.0524 252.863 70.8192 252.717 71.5733C252.625 72.1097 252.396 72.6139 252.053 73.0381C251.729 73.408 251.307 73.6808 250.835 73.8254C250.231 74.0011 249.602 74.0814 248.973 74.0634C248.365 74.0777 247.758 74.0162 247.165 73.8803C246.719 73.7801 246.31 73.5582 245.985 73.2395C245.666 72.9073 245.443 72.4963 245.339 72.0494C245.194 71.4376 245.125 70.8102 245.136 70.1818V64.7987H243.2V63.2973H245.136V60.3677H246.704V63.2973H252.624V64.7987H246.704V70.1818C246.691 70.6421 246.728 71.1025 246.815 71.555C246.863 71.8284 246.998 72.0789 247.202 72.2691C247.4 72.4298 247.647 72.52 247.903 72.5254C248.198 72.5437 248.548 72.562 248.954 72.562C249.286 72.562 249.581 72.562 249.839 72.5437C250.07 72.5294 250.299 72.4926 250.522 72.4339C250.709 72.3767 250.88 72.2763 251.02 72.1409C251.168 71.9756 251.28 71.7826 251.352 71.5733C251.452 71.2772 251.514 70.9695 251.536 70.6578C251.573 70.2916 251.592 69.8339 251.592 69.2846H252.92Z" fill="black"/>
<path d="M257.125 61.5029H255.557V59.7085H257.125V61.5029ZM255.539 63.2972H257.106V74.0634H255.539V63.2972Z" fill="black"/>
<path d="M259.486 68.5522C259.466 67.639 259.572 66.7274 259.799 65.8423C259.964 65.1932 260.309 64.6031 260.795 64.1395C261.302 63.6938 261.92 63.3905 262.584 63.2606C264.35 62.9188 266.167 62.9188 267.933 63.2606C268.597 63.3905 269.215 63.6938 269.722 64.1395C270.208 64.6031 270.553 65.1932 270.718 65.8423C270.944 66.7276 271.049 67.639 271.031 68.5522C271.05 69.4835 270.945 70.4131 270.718 71.3169C270.554 71.9821 270.209 72.5899 269.722 73.0747C269.218 73.532 268.6 73.8479 267.933 73.9902C266.169 74.3564 264.348 74.3564 262.584 73.9902C261.919 73.8403 261.304 73.5253 260.795 73.0747C260.304 72.5929 259.959 71.9839 259.799 71.3169C259.572 70.4131 259.467 69.4835 259.486 68.5522ZM261.053 68.5522C261.053 69.1381 261.072 69.6507 261.109 70.0902C261.136 70.4761 261.21 70.8572 261.33 71.2254C261.424 71.5085 261.575 71.77 261.773 71.9944C261.986 72.2065 262.245 72.369 262.529 72.4705C262.898 72.5996 263.282 72.6797 263.672 72.7085C264.115 72.7451 264.65 72.7817 265.259 72.7817C265.775 72.7817 266.254 72.7634 266.66 72.7451C267.029 72.7276 267.394 72.6661 267.748 72.562C268.039 72.4778 268.309 72.3344 268.541 72.1409C268.777 71.936 268.96 71.6788 269.076 71.3902C269.227 71.0207 269.326 70.6327 269.371 70.2367C269.436 69.6836 269.466 69.1272 269.464 68.5705C269.466 68.0259 269.435 67.4818 269.371 66.9409C269.327 66.5567 269.227 66.1806 269.076 65.824C268.962 65.545 268.778 65.2993 268.541 65.1099C268.308 64.9222 268.038 64.785 267.748 64.7071C267.394 64.6082 267.028 64.5529 266.66 64.5423C266.254 64.524 265.775 64.5057 265.259 64.5057C264.742 64.5057 264.263 64.524 263.857 64.5423C263.489 64.5543 263.123 64.6096 262.769 64.7071C262.476 64.7796 262.204 64.918 261.973 65.1117C261.743 65.3054 261.561 65.5491 261.441 65.824C261.292 66.1814 261.193 66.5571 261.146 66.9409C261.082 67.4756 261.051 68.0137 261.053 68.5522Z" fill="black"/>
<path d="M282.3 74.0634V68.0761C282.311 67.5118 282.268 66.9478 282.171 66.3916C282.106 65.9846 281.927 65.6039 281.655 65.293C281.35 64.9925 280.967 64.7831 280.548 64.6888C279.925 64.5484 279.287 64.4869 278.648 64.5057C277.941 64.4901 277.234 64.5639 276.546 64.7254C276.078 64.8368 275.639 65.0424 275.255 65.3296C274.945 65.5726 274.719 65.9055 274.609 66.2817C274.487 66.6794 274.425 67.0928 274.425 67.5085V74.0817H272.857V63.2972H274.425V65.0916C274.528 64.7949 274.698 64.5256 274.923 64.3043C275.141 64.0899 275.382 63.8996 275.642 63.7367C275.917 63.5791 276.207 63.4503 276.509 63.3522C276.818 63.2616 277.132 63.1883 277.449 63.1325C277.748 63.0789 278.05 63.0422 278.353 63.0226C278.648 63.0043 278.907 62.986 279.146 62.986C279.752 62.9807 280.357 63.0297 280.954 63.1325C281.406 63.2061 281.842 63.3546 282.245 63.5719C282.57 63.7548 282.858 63.9971 283.093 64.286C283.317 64.5836 283.486 64.9184 283.591 65.2747C283.713 65.6869 283.794 66.1101 283.831 66.5381C283.868 66.9958 283.886 67.5085 283.886 68.0578V74.0451H282.3V74.0634Z" fill="black"/>
<path d="M289.53 69.1198C289.041 69.1067 288.554 69.0578 288.073 68.9733C287.72 68.9164 287.377 68.8052 287.059 68.6437C286.799 68.5104 286.578 68.3153 286.413 68.0761C286.237 67.8118 286.123 67.5113 286.081 67.1973C286.011 66.8169 285.98 66.4304 285.989 66.0437C285.975 65.5553 286.083 65.0711 286.302 64.6339C286.528 64.2273 286.877 63.9008 287.298 63.7001C287.859 63.4255 288.465 63.2519 289.087 63.1874C289.974 63.0677 290.867 63.0126 291.762 63.0226C292.62 63.0058 293.478 63.0671 294.325 63.2057C294.893 63.2888 295.438 63.4816 295.93 63.7733C296.302 64.0033 296.592 64.3425 296.76 64.7437C296.934 65.1931 297.016 65.6725 297 66.1536H295.432C295.442 65.8699 295.385 65.5878 295.266 65.3296C295.138 65.0977 294.928 64.9214 294.676 64.8353C294.314 64.7015 293.936 64.6153 293.551 64.5789C292.956 64.5219 292.359 64.4975 291.762 64.5057C290.969 64.5057 290.305 64.524 289.77 64.5423C289.334 64.5526 288.9 64.6141 288.479 64.7254C288.196 64.7875 287.947 64.9504 287.778 65.1832C287.626 65.4379 287.55 65.7297 287.557 66.0254C287.557 66.2451 287.575 66.4465 287.593 66.648C287.603 66.8245 287.661 66.9952 287.759 67.1423C287.854 67.2783 287.99 67.3809 288.147 67.4353C288.37 67.5235 288.607 67.5731 288.848 67.5818C289.209 67.6222 289.572 67.6406 289.936 67.6367H291.504C292.241 67.6367 292.905 67.655 293.459 67.6916C293.949 67.7215 294.436 67.7889 294.916 67.893C295.278 67.9667 295.623 68.1098 295.93 68.3142C296.176 68.4882 296.393 68.6981 296.576 68.9367C296.748 69.1757 296.862 69.4516 296.908 69.7423C296.97 70.0929 297.001 70.4483 297 70.8043C297.001 71.1664 296.97 71.5278 296.908 71.8846C296.852 72.1869 296.733 72.474 296.557 72.7268C296.379 72.9802 296.153 73.1976 295.893 73.3677C295.567 73.575 295.204 73.7179 294.823 73.7888C294.318 73.8973 293.807 73.9767 293.293 74.0268C292.702 74.0818 292.002 74.1001 291.227 74.1001C290.4 74.1109 289.573 74.0558 288.755 73.9353C288.187 73.8564 287.637 73.6765 287.132 73.4043C286.748 73.1825 286.439 72.8507 286.247 72.4522C286.056 71.9944 285.968 71.5008 285.989 71.0057H287.557C287.546 71.3191 287.603 71.6311 287.723 71.9212C287.846 72.1688 288.056 72.3638 288.313 72.4705C288.671 72.6201 289.051 72.7128 289.438 72.7451C290.032 72.8022 290.63 72.8266 291.227 72.8184C291.891 72.8184 292.444 72.8001 292.905 72.7634C293.296 72.737 293.685 72.6819 294.067 72.5987C294.326 72.5451 294.575 72.4525 294.805 72.324C294.97 72.2302 295.109 72.0983 295.211 71.9395C295.302 71.7872 295.365 71.6197 295.395 71.4451C295.418 71.2445 295.43 71.0428 295.432 70.8409C295.43 70.6573 295.418 70.4739 295.395 70.2916C295.373 70.1233 295.317 69.9612 295.229 69.8156C295.139 69.6586 295.004 69.5313 294.842 69.4494C294.62 69.3481 294.383 69.2802 294.141 69.248C293.781 69.1856 293.418 69.1489 293.053 69.1381C292.61 69.1198 292.094 69.1015 291.485 69.1015C290.834 69.1436 290.182 69.1497 289.53 69.1198Z" fill="black"/>
</g>
<defs>
<clipPath id="clip0_3093_20488">
<rect width="297" height="78" fill="white"/>
</clipPath>
</defs>
</svg>
