<svg width="30" height="30" viewBox="0 0 30 30" fill="none" xmlns="http://www.w3.org/2000/svg">
<g clip-path="url(#clip0_3321_62178)">
<path d="M14.5383 1.85996C14.7091 1.44932 15.2909 1.44932 15.4617 1.85996L18.8503 10.0072C18.9223 10.1803 19.0851 10.2986 19.272 10.3135L28.0675 11.0187C28.5109 11.0542 28.6906 11.6075 28.3529 11.8968L21.6516 17.6372C21.5092 17.7592 21.447 17.9506 21.4905 18.1329L23.5379 26.7159C23.641 27.1485 23.1704 27.4905 22.7909 27.2586L15.2606 22.6592C15.1006 22.5615 14.8994 22.5615 14.7394 22.6592L7.20913 27.2586C6.82958 27.4905 6.35896 27.1485 6.46215 26.7159L8.50951 18.1329C8.55301 17.9506 8.49083 17.7592 8.34843 17.6372L1.64713 11.8968C1.30936 11.6075 1.48912 11.0542 1.93245 11.0187L10.728 10.3135C10.9149 10.2986 11.0777 10.1803 11.1497 10.0072L14.5383 1.85996Z" fill="#F2F4F7"/>
<g clip-path="url(#clip1_3321_62178)">
<path d="M14.5383 1.85996C14.7091 1.44932 15.2909 1.44932 15.4617 1.85996L18.8503 10.0072C18.9223 10.1803 19.0851 10.2986 19.272 10.3135L28.0675 11.0187C28.5109 11.0542 28.6906 11.6075 28.3529 11.8968L21.6516 17.6372C21.5092 17.7592 21.447 17.9506 21.4905 18.1329L23.5379 26.7159C23.641 27.1485 23.1704 27.4905 22.7909 27.2586L15.2606 22.6592C15.1006 22.5615 14.8994 22.5615 14.7394 22.6592L7.20913 27.2586C6.82958 27.4905 6.35896 27.1485 6.46215 26.7159L8.50951 18.1329C8.55301 17.9506 8.49083 17.7592 8.34843 17.6372L1.64713 11.8968C1.30936 11.6075 1.48912 11.0542 1.93245 11.0187L10.728 10.3135C10.9149 10.2986 11.0777 10.1803 11.1497 10.0072L14.5383 1.85996Z" fill="#FEC84B"/>
</g>
</g>
<defs>
<clipPath id="clip0_3321_62178">
<rect width="30" height="30" fill="white"/>
</clipPath>
<clipPath id="clip1_3321_62178">
<rect width="30" height="30" fill="white"/>
</clipPath>
</defs>
</svg>
